# xmcd CD database file
# Copyright (C) 1993-1996 Ti Kan
#
# Track frame offsets:
#  150
#  21265
#  41385
#  62955
#  81540
#  99327
#  119302
#  138964
#  153044
#  174259
#  191764
#  208262
#  222584
#
# Disc length: 3176 seconds
#
# Revision: 1
# Processed by: cddbd v1.5.2PL0 Copyright (c) Steve Scherf et al.
# Submitted via: Advanced CD Ripper Pro 2.0
#
DISCID=b70c660d
DTITLE=MURAT KURÞUN - BEN YANAYIM
DYEAR=2007
DGENRE=
TTITLE0=ÝYÝ KÝ VARSIN
TTITLE1=KARI DIRDIRI
TTITLE2=BEN YANAYIM
TTITLE3=BÝR SEN KALDIN
TTITLE4=ELMALI
TTITLE5=DERT MEKTUBU
TTITLE6=KÝRVE (DÜET: CEYLAN)
TTITLE7=ODAM DÖRT KÖÞE
TTITLE8=SÖYLESENE
TTITLE9=SON VER
TTITLE10=UTANMADIN MI
TTITLE11=SANA MI KALDI
TTITLE12=ANNEM
EXTD=
EXTT0=
EXTT1=
EXTT2=
EXTT3=
EXTT4=
EXTT5=
EXTT6=
EXTT7=
EXTT8=
EXTT9=
EXTT10=
EXTT11=
EXTT12=
PLAYORDER=
